<mxfile host="Electron" modified="2023-10-01T03:40:21.920Z" agent="Mozilla/5.0 (Windows NT 10.0; Win64; x64) AppleWebKit/537.36 (KHTML, like Gecko) draw.io/21.7.5 Chrome/114.0.5735.289 Electron/25.8.1 Safari/537.36" etag="wEtFwYAsQh85NAPVsBqd" version="21.7.5" type="device">
  <diagram name="Page-1" id="Ee6Hyi_JfBzwIGWvyNi9">
    <mxGraphModel dx="1933" dy="-100" grid="1" gridSize="10" guides="1" tooltips="1" connect="1" arrows="1" fold="1" page="1" pageScale="1" pageWidth="850" pageHeight="1100" math="0" shadow="0">
      <root>
        <mxCell id="0" />
        <mxCell id="1" parent="0" />
        <mxCell id="0LHcCGDAPpz1XPyRw5mx-10" value="Product" style="shape=table;startSize=30;container=1;collapsible=1;childLayout=tableLayout;fixedRows=1;rowLines=0;fontStyle=1;align=center;resizeLast=1;html=1;" parent="1" vertex="1">
          <mxGeometry x="396" y="1212" width="254" height="178" as="geometry" />
        </mxCell>
        <mxCell id="0LHcCGDAPpz1XPyRw5mx-11" value="" style="shape=tableRow;horizontal=0;startSize=0;swimlaneHead=0;swimlaneBody=0;fillColor=none;collapsible=0;dropTarget=0;points=[[0,0.5],[1,0.5]];portConstraint=eastwest;top=0;left=0;right=0;bottom=1;" parent="0LHcCGDAPpz1XPyRw5mx-10" vertex="1">
          <mxGeometry y="30" width="254" height="30" as="geometry" />
        </mxCell>
        <mxCell id="0LHcCGDAPpz1XPyRw5mx-12" value="PK" style="shape=partialRectangle;connectable=0;fillColor=none;top=0;left=0;bottom=0;right=0;fontStyle=1;overflow=hidden;whiteSpace=wrap;html=1;" parent="0LHcCGDAPpz1XPyRw5mx-11" vertex="1">
          <mxGeometry width="30" height="30" as="geometry">
            <mxRectangle width="30" height="30" as="alternateBounds" />
          </mxGeometry>
        </mxCell>
        <mxCell id="0LHcCGDAPpz1XPyRw5mx-13" value="&lt;u&gt;PRODUCT_ID&lt;/u&gt;" style="shape=partialRectangle;connectable=0;fillColor=none;top=0;left=0;bottom=0;right=0;align=left;spacingLeft=6;fontStyle=1;overflow=hidden;whiteSpace=wrap;html=1;" parent="0LHcCGDAPpz1XPyRw5mx-11" vertex="1">
          <mxGeometry x="30" width="150" height="30" as="geometry">
            <mxRectangle width="150" height="30" as="alternateBounds" />
          </mxGeometry>
        </mxCell>
        <mxCell id="0LHcCGDAPpz1XPyRw5mx-118" value="&lt;span style=&quot;font-weight: normal;&quot;&gt;integer&lt;/span&gt;" style="shape=partialRectangle;connectable=0;fillColor=none;top=0;left=0;bottom=0;right=0;align=left;spacingLeft=6;fontStyle=1;overflow=hidden;whiteSpace=wrap;html=1;" parent="0LHcCGDAPpz1XPyRw5mx-11" vertex="1">
          <mxGeometry x="180" width="74" height="30" as="geometry">
            <mxRectangle width="74" height="30" as="alternateBounds" />
          </mxGeometry>
        </mxCell>
        <mxCell id="0LHcCGDAPpz1XPyRw5mx-14" value="" style="shape=tableRow;horizontal=0;startSize=0;swimlaneHead=0;swimlaneBody=0;fillColor=none;collapsible=0;dropTarget=0;points=[[0,0.5],[1,0.5]];portConstraint=eastwest;top=0;left=0;right=0;bottom=0;" parent="0LHcCGDAPpz1XPyRw5mx-10" vertex="1">
          <mxGeometry y="60" width="254" height="30" as="geometry" />
        </mxCell>
        <mxCell id="0LHcCGDAPpz1XPyRw5mx-15" value="" style="shape=partialRectangle;connectable=0;fillColor=none;top=0;left=0;bottom=0;right=0;editable=1;overflow=hidden;whiteSpace=wrap;html=1;" parent="0LHcCGDAPpz1XPyRw5mx-14" vertex="1">
          <mxGeometry width="30" height="30" as="geometry">
            <mxRectangle width="30" height="30" as="alternateBounds" />
          </mxGeometry>
        </mxCell>
        <mxCell id="0LHcCGDAPpz1XPyRw5mx-16" value="PRODUCT_TYPE" style="shape=partialRectangle;connectable=0;fillColor=none;top=0;left=0;bottom=0;right=0;align=left;spacingLeft=6;overflow=hidden;whiteSpace=wrap;html=1;" parent="0LHcCGDAPpz1XPyRw5mx-14" vertex="1">
          <mxGeometry x="30" width="150" height="30" as="geometry">
            <mxRectangle width="150" height="30" as="alternateBounds" />
          </mxGeometry>
        </mxCell>
        <mxCell id="0LHcCGDAPpz1XPyRw5mx-119" value="string" style="shape=partialRectangle;connectable=0;fillColor=none;top=0;left=0;bottom=0;right=0;align=left;spacingLeft=6;overflow=hidden;whiteSpace=wrap;html=1;" parent="0LHcCGDAPpz1XPyRw5mx-14" vertex="1">
          <mxGeometry x="180" width="74" height="30" as="geometry">
            <mxRectangle width="74" height="30" as="alternateBounds" />
          </mxGeometry>
        </mxCell>
        <mxCell id="0LHcCGDAPpz1XPyRw5mx-17" value="" style="shape=tableRow;horizontal=0;startSize=0;swimlaneHead=0;swimlaneBody=0;fillColor=none;collapsible=0;dropTarget=0;points=[[0,0.5],[1,0.5]];portConstraint=eastwest;top=0;left=0;right=0;bottom=0;" parent="0LHcCGDAPpz1XPyRw5mx-10" vertex="1">
          <mxGeometry y="90" width="254" height="28" as="geometry" />
        </mxCell>
        <mxCell id="0LHcCGDAPpz1XPyRw5mx-18" value="FK" style="shape=partialRectangle;connectable=0;fillColor=none;top=0;left=0;bottom=0;right=0;editable=1;overflow=hidden;whiteSpace=wrap;html=1;" parent="0LHcCGDAPpz1XPyRw5mx-17" vertex="1">
          <mxGeometry width="30" height="28" as="geometry">
            <mxRectangle width="30" height="28" as="alternateBounds" />
          </mxGeometry>
        </mxCell>
        <mxCell id="0LHcCGDAPpz1XPyRw5mx-19" value="SUP_ID" style="shape=partialRectangle;connectable=0;fillColor=none;top=0;left=0;bottom=0;right=0;align=left;spacingLeft=6;overflow=hidden;whiteSpace=wrap;html=1;" parent="0LHcCGDAPpz1XPyRw5mx-17" vertex="1">
          <mxGeometry x="30" width="150" height="28" as="geometry">
            <mxRectangle width="150" height="28" as="alternateBounds" />
          </mxGeometry>
        </mxCell>
        <mxCell id="0LHcCGDAPpz1XPyRw5mx-120" value="integer" style="shape=partialRectangle;connectable=0;fillColor=none;top=0;left=0;bottom=0;right=0;align=left;spacingLeft=6;overflow=hidden;whiteSpace=wrap;html=1;" parent="0LHcCGDAPpz1XPyRw5mx-17" vertex="1">
          <mxGeometry x="180" width="74" height="28" as="geometry">
            <mxRectangle width="74" height="28" as="alternateBounds" />
          </mxGeometry>
        </mxCell>
        <mxCell id="3oELxEXSJkwLXydsdeAX-6" style="shape=tableRow;horizontal=0;startSize=0;swimlaneHead=0;swimlaneBody=0;fillColor=none;collapsible=0;dropTarget=0;points=[[0,0.5],[1,0.5]];portConstraint=eastwest;top=0;left=0;right=0;bottom=0;" parent="0LHcCGDAPpz1XPyRw5mx-10" vertex="1">
          <mxGeometry y="118" width="254" height="30" as="geometry" />
        </mxCell>
        <mxCell id="3oELxEXSJkwLXydsdeAX-7" style="shape=partialRectangle;connectable=0;fillColor=none;top=0;left=0;bottom=0;right=0;editable=1;overflow=hidden;whiteSpace=wrap;html=1;" parent="3oELxEXSJkwLXydsdeAX-6" vertex="1">
          <mxGeometry width="30" height="30" as="geometry">
            <mxRectangle width="30" height="30" as="alternateBounds" />
          </mxGeometry>
        </mxCell>
        <mxCell id="3oELxEXSJkwLXydsdeAX-8" value="PRODUCT_PRICE" style="shape=partialRectangle;connectable=0;fillColor=none;top=0;left=0;bottom=0;right=0;align=left;spacingLeft=6;overflow=hidden;whiteSpace=wrap;html=1;" parent="3oELxEXSJkwLXydsdeAX-6" vertex="1">
          <mxGeometry x="30" width="150" height="30" as="geometry">
            <mxRectangle width="150" height="30" as="alternateBounds" />
          </mxGeometry>
        </mxCell>
        <mxCell id="3oELxEXSJkwLXydsdeAX-9" value="float" style="shape=partialRectangle;connectable=0;fillColor=none;top=0;left=0;bottom=0;right=0;align=left;spacingLeft=6;overflow=hidden;whiteSpace=wrap;html=1;" parent="3oELxEXSJkwLXydsdeAX-6" vertex="1">
          <mxGeometry x="180" width="74" height="30" as="geometry">
            <mxRectangle width="74" height="30" as="alternateBounds" />
          </mxGeometry>
        </mxCell>
        <mxCell id="0LHcCGDAPpz1XPyRw5mx-20" value="" style="shape=tableRow;horizontal=0;startSize=0;swimlaneHead=0;swimlaneBody=0;fillColor=none;collapsible=0;dropTarget=0;points=[[0,0.5],[1,0.5]];portConstraint=eastwest;top=0;left=0;right=0;bottom=0;" parent="0LHcCGDAPpz1XPyRw5mx-10" vertex="1">
          <mxGeometry y="148" width="254" height="30" as="geometry" />
        </mxCell>
        <mxCell id="0LHcCGDAPpz1XPyRw5mx-21" value="" style="shape=partialRectangle;connectable=0;fillColor=none;top=0;left=0;bottom=0;right=0;editable=1;overflow=hidden;whiteSpace=wrap;html=1;" parent="0LHcCGDAPpz1XPyRw5mx-20" vertex="1">
          <mxGeometry width="30" height="30" as="geometry">
            <mxRectangle width="30" height="30" as="alternateBounds" />
          </mxGeometry>
        </mxCell>
        <mxCell id="0LHcCGDAPpz1XPyRw5mx-22" value="PRODUCT_QTY" style="shape=partialRectangle;connectable=0;fillColor=none;top=0;left=0;bottom=0;right=0;align=left;spacingLeft=6;overflow=hidden;whiteSpace=wrap;html=1;" parent="0LHcCGDAPpz1XPyRw5mx-20" vertex="1">
          <mxGeometry x="30" width="150" height="30" as="geometry">
            <mxRectangle width="150" height="30" as="alternateBounds" />
          </mxGeometry>
        </mxCell>
        <mxCell id="0LHcCGDAPpz1XPyRw5mx-121" value="integer" style="shape=partialRectangle;connectable=0;fillColor=none;top=0;left=0;bottom=0;right=0;align=left;spacingLeft=6;overflow=hidden;whiteSpace=wrap;html=1;" parent="0LHcCGDAPpz1XPyRw5mx-20" vertex="1">
          <mxGeometry x="180" width="74" height="30" as="geometry">
            <mxRectangle width="74" height="30" as="alternateBounds" />
          </mxGeometry>
        </mxCell>
        <mxCell id="0LHcCGDAPpz1XPyRw5mx-29" value="Customer" style="shape=table;startSize=30;container=1;collapsible=1;childLayout=tableLayout;fixedRows=1;rowLines=0;fontStyle=1;align=center;resizeLast=1;html=1;" parent="1" vertex="1">
          <mxGeometry x="300" y="1480" width="270" height="380.0000000000002" as="geometry" />
        </mxCell>
        <mxCell id="0LHcCGDAPpz1XPyRw5mx-30" value="" style="shape=tableRow;horizontal=0;startSize=0;swimlaneHead=0;swimlaneBody=0;fillColor=none;collapsible=0;dropTarget=0;points=[[0,0.5],[1,0.5]];portConstraint=eastwest;top=0;left=0;right=0;bottom=1;" parent="0LHcCGDAPpz1XPyRw5mx-29" vertex="1">
          <mxGeometry y="30" width="270" height="30" as="geometry" />
        </mxCell>
        <mxCell id="0LHcCGDAPpz1XPyRw5mx-31" value="PK" style="shape=partialRectangle;connectable=0;fillColor=none;top=0;left=0;bottom=0;right=0;fontStyle=0;overflow=hidden;whiteSpace=wrap;html=1;" parent="0LHcCGDAPpz1XPyRw5mx-30" vertex="1">
          <mxGeometry width="30" height="30" as="geometry">
            <mxRectangle width="30" height="30" as="alternateBounds" />
          </mxGeometry>
        </mxCell>
        <mxCell id="0LHcCGDAPpz1XPyRw5mx-32" value="CUST_ID" style="shape=partialRectangle;connectable=0;fillColor=none;top=0;left=0;bottom=0;right=0;align=left;spacingLeft=6;fontStyle=5;overflow=hidden;whiteSpace=wrap;html=1;" parent="0LHcCGDAPpz1XPyRw5mx-30" vertex="1">
          <mxGeometry x="30" width="162" height="30" as="geometry">
            <mxRectangle width="162" height="30" as="alternateBounds" />
          </mxGeometry>
        </mxCell>
        <mxCell id="0LHcCGDAPpz1XPyRw5mx-164" value="integer" style="shape=partialRectangle;connectable=0;fillColor=none;top=0;left=0;bottom=0;right=0;align=left;spacingLeft=6;fontStyle=0;overflow=hidden;whiteSpace=wrap;html=1;" parent="0LHcCGDAPpz1XPyRw5mx-30" vertex="1">
          <mxGeometry x="192" width="78" height="30" as="geometry">
            <mxRectangle width="78" height="30" as="alternateBounds" />
          </mxGeometry>
        </mxCell>
        <mxCell id="0LHcCGDAPpz1XPyRw5mx-36" value="" style="shape=tableRow;horizontal=0;startSize=0;swimlaneHead=0;swimlaneBody=0;fillColor=none;collapsible=0;dropTarget=0;points=[[0,0.5],[1,0.5]];portConstraint=eastwest;top=0;left=0;right=0;bottom=0;" parent="0LHcCGDAPpz1XPyRw5mx-29" vertex="1">
          <mxGeometry y="60" width="270" height="30" as="geometry" />
        </mxCell>
        <mxCell id="0LHcCGDAPpz1XPyRw5mx-37" value="" style="shape=partialRectangle;connectable=0;fillColor=none;top=0;left=0;bottom=0;right=0;editable=1;overflow=hidden;whiteSpace=wrap;html=1;" parent="0LHcCGDAPpz1XPyRw5mx-36" vertex="1">
          <mxGeometry width="30" height="30" as="geometry">
            <mxRectangle width="30" height="30" as="alternateBounds" />
          </mxGeometry>
        </mxCell>
        <mxCell id="0LHcCGDAPpz1XPyRw5mx-38" value="CONTACT_FNAME" style="shape=partialRectangle;connectable=0;fillColor=none;top=0;left=0;bottom=0;right=0;align=left;spacingLeft=6;overflow=hidden;whiteSpace=wrap;html=1;" parent="0LHcCGDAPpz1XPyRw5mx-36" vertex="1">
          <mxGeometry x="30" width="162" height="30" as="geometry">
            <mxRectangle width="162" height="30" as="alternateBounds" />
          </mxGeometry>
        </mxCell>
        <mxCell id="0LHcCGDAPpz1XPyRw5mx-166" value="string" style="shape=partialRectangle;connectable=0;fillColor=none;top=0;left=0;bottom=0;right=0;align=left;spacingLeft=6;overflow=hidden;whiteSpace=wrap;html=1;" parent="0LHcCGDAPpz1XPyRw5mx-36" vertex="1">
          <mxGeometry x="192" width="78" height="30" as="geometry">
            <mxRectangle width="78" height="30" as="alternateBounds" />
          </mxGeometry>
        </mxCell>
        <mxCell id="0LHcCGDAPpz1XPyRw5mx-173" style="shape=tableRow;horizontal=0;startSize=0;swimlaneHead=0;swimlaneBody=0;fillColor=none;collapsible=0;dropTarget=0;points=[[0,0.5],[1,0.5]];portConstraint=eastwest;top=0;left=0;right=0;bottom=0;" parent="0LHcCGDAPpz1XPyRw5mx-29" vertex="1">
          <mxGeometry y="90" width="270" height="30" as="geometry" />
        </mxCell>
        <mxCell id="0LHcCGDAPpz1XPyRw5mx-174" style="shape=partialRectangle;connectable=0;fillColor=none;top=0;left=0;bottom=0;right=0;editable=1;overflow=hidden;whiteSpace=wrap;html=1;" parent="0LHcCGDAPpz1XPyRw5mx-173" vertex="1">
          <mxGeometry width="30" height="30" as="geometry">
            <mxRectangle width="30" height="30" as="alternateBounds" />
          </mxGeometry>
        </mxCell>
        <mxCell id="0LHcCGDAPpz1XPyRw5mx-175" value="CONTACT_LNAME" style="shape=partialRectangle;connectable=0;fillColor=none;top=0;left=0;bottom=0;right=0;align=left;spacingLeft=6;overflow=hidden;whiteSpace=wrap;html=1;" parent="0LHcCGDAPpz1XPyRw5mx-173" vertex="1">
          <mxGeometry x="30" width="162" height="30" as="geometry">
            <mxRectangle width="162" height="30" as="alternateBounds" />
          </mxGeometry>
        </mxCell>
        <mxCell id="0LHcCGDAPpz1XPyRw5mx-176" value="string" style="shape=partialRectangle;connectable=0;fillColor=none;top=0;left=0;bottom=0;right=0;align=left;spacingLeft=6;overflow=hidden;whiteSpace=wrap;html=1;" parent="0LHcCGDAPpz1XPyRw5mx-173" vertex="1">
          <mxGeometry x="192" width="78" height="30" as="geometry">
            <mxRectangle width="78" height="30" as="alternateBounds" />
          </mxGeometry>
        </mxCell>
        <mxCell id="0LHcCGDAPpz1XPyRw5mx-39" style="shape=tableRow;horizontal=0;startSize=0;swimlaneHead=0;swimlaneBody=0;fillColor=none;collapsible=0;dropTarget=0;points=[[0,0.5],[1,0.5]];portConstraint=eastwest;top=0;left=0;right=0;bottom=0;" parent="0LHcCGDAPpz1XPyRw5mx-29" vertex="1">
          <mxGeometry y="120" width="270" height="30" as="geometry" />
        </mxCell>
        <mxCell id="0LHcCGDAPpz1XPyRw5mx-40" style="shape=partialRectangle;connectable=0;fillColor=none;top=0;left=0;bottom=0;right=0;editable=1;overflow=hidden;whiteSpace=wrap;html=1;" parent="0LHcCGDAPpz1XPyRw5mx-39" vertex="1">
          <mxGeometry width="30" height="30" as="geometry">
            <mxRectangle width="30" height="30" as="alternateBounds" />
          </mxGeometry>
        </mxCell>
        <mxCell id="0LHcCGDAPpz1XPyRw5mx-41" value="CONTACT_PHONENUM" style="shape=partialRectangle;connectable=0;fillColor=none;top=0;left=0;bottom=0;right=0;align=left;spacingLeft=6;overflow=hidden;whiteSpace=wrap;html=1;" parent="0LHcCGDAPpz1XPyRw5mx-39" vertex="1">
          <mxGeometry x="30" width="162" height="30" as="geometry">
            <mxRectangle width="162" height="30" as="alternateBounds" />
          </mxGeometry>
        </mxCell>
        <mxCell id="0LHcCGDAPpz1XPyRw5mx-167" value="string" style="shape=partialRectangle;connectable=0;fillColor=none;top=0;left=0;bottom=0;right=0;align=left;spacingLeft=6;overflow=hidden;whiteSpace=wrap;html=1;" parent="0LHcCGDAPpz1XPyRw5mx-39" vertex="1">
          <mxGeometry x="192" width="78" height="30" as="geometry">
            <mxRectangle width="78" height="30" as="alternateBounds" />
          </mxGeometry>
        </mxCell>
        <mxCell id="0LHcCGDAPpz1XPyRw5mx-42" style="shape=tableRow;horizontal=0;startSize=0;swimlaneHead=0;swimlaneBody=0;fillColor=none;collapsible=0;dropTarget=0;points=[[0,0.5],[1,0.5]];portConstraint=eastwest;top=0;left=0;right=0;bottom=0;" parent="0LHcCGDAPpz1XPyRw5mx-29" vertex="1">
          <mxGeometry y="150" width="270" height="30" as="geometry" />
        </mxCell>
        <mxCell id="0LHcCGDAPpz1XPyRw5mx-43" style="shape=partialRectangle;connectable=0;fillColor=none;top=0;left=0;bottom=0;right=0;editable=1;overflow=hidden;whiteSpace=wrap;html=1;" parent="0LHcCGDAPpz1XPyRw5mx-42" vertex="1">
          <mxGeometry width="30" height="30" as="geometry">
            <mxRectangle width="30" height="30" as="alternateBounds" />
          </mxGeometry>
        </mxCell>
        <mxCell id="0LHcCGDAPpz1XPyRw5mx-44" value="CONTACT_ADDRESS" style="shape=partialRectangle;connectable=0;fillColor=none;top=0;left=0;bottom=0;right=0;align=left;spacingLeft=6;overflow=hidden;whiteSpace=wrap;html=1;" parent="0LHcCGDAPpz1XPyRw5mx-42" vertex="1">
          <mxGeometry x="30" width="162" height="30" as="geometry">
            <mxRectangle width="162" height="30" as="alternateBounds" />
          </mxGeometry>
        </mxCell>
        <mxCell id="0LHcCGDAPpz1XPyRw5mx-168" value="string" style="shape=partialRectangle;connectable=0;fillColor=none;top=0;left=0;bottom=0;right=0;align=left;spacingLeft=6;overflow=hidden;whiteSpace=wrap;html=1;" parent="0LHcCGDAPpz1XPyRw5mx-42" vertex="1">
          <mxGeometry x="192" width="78" height="30" as="geometry">
            <mxRectangle width="78" height="30" as="alternateBounds" />
          </mxGeometry>
        </mxCell>
        <mxCell id="0Wes0kT12-fcZN0h_VUO-40" style="shape=tableRow;horizontal=0;startSize=0;swimlaneHead=0;swimlaneBody=0;fillColor=none;collapsible=0;dropTarget=0;points=[[0,0.5],[1,0.5]];portConstraint=eastwest;top=0;left=0;right=0;bottom=0;" parent="0LHcCGDAPpz1XPyRw5mx-29" vertex="1">
          <mxGeometry y="180" width="270" height="30" as="geometry" />
        </mxCell>
        <mxCell id="0Wes0kT12-fcZN0h_VUO-41" style="shape=partialRectangle;connectable=0;fillColor=none;top=0;left=0;bottom=0;right=0;editable=1;overflow=hidden;whiteSpace=wrap;html=1;" parent="0Wes0kT12-fcZN0h_VUO-40" vertex="1">
          <mxGeometry width="30" height="30" as="geometry">
            <mxRectangle width="30" height="30" as="alternateBounds" />
          </mxGeometry>
        </mxCell>
        <mxCell id="0Wes0kT12-fcZN0h_VUO-42" value="CONTACT_EMAIL" style="shape=partialRectangle;connectable=0;fillColor=none;top=0;left=0;bottom=0;right=0;align=left;spacingLeft=6;overflow=hidden;whiteSpace=wrap;html=1;" parent="0Wes0kT12-fcZN0h_VUO-40" vertex="1">
          <mxGeometry x="30" width="162" height="30" as="geometry">
            <mxRectangle width="162" height="30" as="alternateBounds" />
          </mxGeometry>
        </mxCell>
        <mxCell id="0Wes0kT12-fcZN0h_VUO-43" value="string" style="shape=partialRectangle;connectable=0;fillColor=none;top=0;left=0;bottom=0;right=0;align=left;spacingLeft=6;overflow=hidden;whiteSpace=wrap;html=1;" parent="0Wes0kT12-fcZN0h_VUO-40" vertex="1">
          <mxGeometry x="192" width="78" height="30" as="geometry">
            <mxRectangle width="78" height="30" as="alternateBounds" />
          </mxGeometry>
        </mxCell>
        <mxCell id="0LHcCGDAPpz1XPyRw5mx-45" style="shape=tableRow;horizontal=0;startSize=0;swimlaneHead=0;swimlaneBody=0;fillColor=none;collapsible=0;dropTarget=0;points=[[0,0.5],[1,0.5]];portConstraint=eastwest;top=0;left=0;right=0;bottom=0;" parent="0LHcCGDAPpz1XPyRw5mx-29" vertex="1">
          <mxGeometry y="210" width="270" height="30" as="geometry" />
        </mxCell>
        <mxCell id="0LHcCGDAPpz1XPyRw5mx-46" style="shape=partialRectangle;connectable=0;fillColor=none;top=0;left=0;bottom=0;right=0;editable=1;overflow=hidden;whiteSpace=wrap;html=1;" parent="0LHcCGDAPpz1XPyRw5mx-45" vertex="1">
          <mxGeometry width="30" height="30" as="geometry">
            <mxRectangle width="30" height="30" as="alternateBounds" />
          </mxGeometry>
        </mxCell>
        <mxCell id="0LHcCGDAPpz1XPyRw5mx-47" value="CUST_BALANCE" style="shape=partialRectangle;connectable=0;fillColor=none;top=0;left=0;bottom=0;right=0;align=left;spacingLeft=6;overflow=hidden;whiteSpace=wrap;html=1;" parent="0LHcCGDAPpz1XPyRw5mx-45" vertex="1">
          <mxGeometry x="30" width="162" height="30" as="geometry">
            <mxRectangle width="162" height="30" as="alternateBounds" />
          </mxGeometry>
        </mxCell>
        <mxCell id="0LHcCGDAPpz1XPyRw5mx-169" value="float" style="shape=partialRectangle;connectable=0;fillColor=none;top=0;left=0;bottom=0;right=0;align=left;spacingLeft=6;overflow=hidden;whiteSpace=wrap;html=1;" parent="0LHcCGDAPpz1XPyRw5mx-45" vertex="1">
          <mxGeometry x="192" width="78" height="30" as="geometry">
            <mxRectangle width="78" height="30" as="alternateBounds" />
          </mxGeometry>
        </mxCell>
        <mxCell id="3oELxEXSJkwLXydsdeAX-26" style="shape=tableRow;horizontal=0;startSize=0;swimlaneHead=0;swimlaneBody=0;fillColor=none;collapsible=0;dropTarget=0;points=[[0,0.5],[1,0.5]];portConstraint=eastwest;top=0;left=0;right=0;bottom=0;" parent="0LHcCGDAPpz1XPyRw5mx-29" vertex="1">
          <mxGeometry y="240" width="270" height="30" as="geometry" />
        </mxCell>
        <mxCell id="3oELxEXSJkwLXydsdeAX-27" style="shape=partialRectangle;connectable=0;fillColor=none;top=0;left=0;bottom=0;right=0;editable=1;overflow=hidden;whiteSpace=wrap;html=1;" parent="3oELxEXSJkwLXydsdeAX-26" vertex="1">
          <mxGeometry width="30" height="30" as="geometry">
            <mxRectangle width="30" height="30" as="alternateBounds" />
          </mxGeometry>
        </mxCell>
        <mxCell id="3oELxEXSJkwLXydsdeAX-28" value="ORG_NAME" style="shape=partialRectangle;connectable=0;fillColor=none;top=0;left=0;bottom=0;right=0;align=left;spacingLeft=6;overflow=hidden;whiteSpace=wrap;html=1;" parent="3oELxEXSJkwLXydsdeAX-26" vertex="1">
          <mxGeometry x="30" width="162" height="30" as="geometry">
            <mxRectangle width="162" height="30" as="alternateBounds" />
          </mxGeometry>
        </mxCell>
        <mxCell id="3oELxEXSJkwLXydsdeAX-29" value="string" style="shape=partialRectangle;connectable=0;fillColor=none;top=0;left=0;bottom=0;right=0;align=left;spacingLeft=6;overflow=hidden;whiteSpace=wrap;html=1;" parent="3oELxEXSJkwLXydsdeAX-26" vertex="1">
          <mxGeometry x="192" width="78" height="30" as="geometry">
            <mxRectangle width="78" height="30" as="alternateBounds" />
          </mxGeometry>
        </mxCell>
        <mxCell id="3oELxEXSJkwLXydsdeAX-22" style="shape=tableRow;horizontal=0;startSize=0;swimlaneHead=0;swimlaneBody=0;fillColor=none;collapsible=0;dropTarget=0;points=[[0,0.5],[1,0.5]];portConstraint=eastwest;top=0;left=0;right=0;bottom=0;" parent="0LHcCGDAPpz1XPyRw5mx-29" vertex="1">
          <mxGeometry y="270" width="270" height="30" as="geometry" />
        </mxCell>
        <mxCell id="3oELxEXSJkwLXydsdeAX-23" style="shape=partialRectangle;connectable=0;fillColor=none;top=0;left=0;bottom=0;right=0;editable=1;overflow=hidden;whiteSpace=wrap;html=1;" parent="3oELxEXSJkwLXydsdeAX-22" vertex="1">
          <mxGeometry width="30" height="30" as="geometry">
            <mxRectangle width="30" height="30" as="alternateBounds" />
          </mxGeometry>
        </mxCell>
        <mxCell id="3oELxEXSJkwLXydsdeAX-24" value="ORG_PHONENUM" style="shape=partialRectangle;connectable=0;fillColor=none;top=0;left=0;bottom=0;right=0;align=left;spacingLeft=6;overflow=hidden;whiteSpace=wrap;html=1;" parent="3oELxEXSJkwLXydsdeAX-22" vertex="1">
          <mxGeometry x="30" width="162" height="30" as="geometry">
            <mxRectangle width="162" height="30" as="alternateBounds" />
          </mxGeometry>
        </mxCell>
        <mxCell id="3oELxEXSJkwLXydsdeAX-25" value="string" style="shape=partialRectangle;connectable=0;fillColor=none;top=0;left=0;bottom=0;right=0;align=left;spacingLeft=6;overflow=hidden;whiteSpace=wrap;html=1;" parent="3oELxEXSJkwLXydsdeAX-22" vertex="1">
          <mxGeometry x="192" width="78" height="30" as="geometry">
            <mxRectangle width="78" height="30" as="alternateBounds" />
          </mxGeometry>
        </mxCell>
        <mxCell id="3oELxEXSJkwLXydsdeAX-34" style="shape=tableRow;horizontal=0;startSize=0;swimlaneHead=0;swimlaneBody=0;fillColor=none;collapsible=0;dropTarget=0;points=[[0,0.5],[1,0.5]];portConstraint=eastwest;top=0;left=0;right=0;bottom=0;" parent="0LHcCGDAPpz1XPyRw5mx-29" vertex="1">
          <mxGeometry y="300" width="270" height="20" as="geometry" />
        </mxCell>
        <mxCell id="3oELxEXSJkwLXydsdeAX-35" style="shape=partialRectangle;connectable=0;fillColor=none;top=0;left=0;bottom=0;right=0;editable=1;overflow=hidden;whiteSpace=wrap;html=1;" parent="3oELxEXSJkwLXydsdeAX-34" vertex="1">
          <mxGeometry width="30" height="20" as="geometry">
            <mxRectangle width="30" height="20" as="alternateBounds" />
          </mxGeometry>
        </mxCell>
        <mxCell id="3oELxEXSJkwLXydsdeAX-36" value="ORG_ADDRESS" style="shape=partialRectangle;connectable=0;fillColor=none;top=0;left=0;bottom=0;right=0;align=left;spacingLeft=6;overflow=hidden;whiteSpace=wrap;html=1;" parent="3oELxEXSJkwLXydsdeAX-34" vertex="1">
          <mxGeometry x="30" width="162" height="20" as="geometry">
            <mxRectangle width="162" height="20" as="alternateBounds" />
          </mxGeometry>
        </mxCell>
        <mxCell id="3oELxEXSJkwLXydsdeAX-37" value="string" style="shape=partialRectangle;connectable=0;fillColor=none;top=0;left=0;bottom=0;right=0;align=left;spacingLeft=6;overflow=hidden;whiteSpace=wrap;html=1;" parent="3oELxEXSJkwLXydsdeAX-34" vertex="1">
          <mxGeometry x="192" width="78" height="20" as="geometry">
            <mxRectangle width="78" height="20" as="alternateBounds" />
          </mxGeometry>
        </mxCell>
        <mxCell id="3oELxEXSJkwLXydsdeAX-30" style="shape=tableRow;horizontal=0;startSize=0;swimlaneHead=0;swimlaneBody=0;fillColor=none;collapsible=0;dropTarget=0;points=[[0,0.5],[1,0.5]];portConstraint=eastwest;top=0;left=0;right=0;bottom=0;" parent="0LHcCGDAPpz1XPyRw5mx-29" vertex="1">
          <mxGeometry y="320" width="270" height="30" as="geometry" />
        </mxCell>
        <mxCell id="3oELxEXSJkwLXydsdeAX-31" style="shape=partialRectangle;connectable=0;fillColor=none;top=0;left=0;bottom=0;right=0;editable=1;overflow=hidden;whiteSpace=wrap;html=1;" parent="3oELxEXSJkwLXydsdeAX-30" vertex="1">
          <mxGeometry width="30" height="30" as="geometry">
            <mxRectangle width="30" height="30" as="alternateBounds" />
          </mxGeometry>
        </mxCell>
        <mxCell id="3oELxEXSJkwLXydsdeAX-32" value="ORG_FAX" style="shape=partialRectangle;connectable=0;fillColor=none;top=0;left=0;bottom=0;right=0;align=left;spacingLeft=6;overflow=hidden;whiteSpace=wrap;html=1;" parent="3oELxEXSJkwLXydsdeAX-30" vertex="1">
          <mxGeometry x="30" width="162" height="30" as="geometry">
            <mxRectangle width="162" height="30" as="alternateBounds" />
          </mxGeometry>
        </mxCell>
        <mxCell id="3oELxEXSJkwLXydsdeAX-33" value="string" style="shape=partialRectangle;connectable=0;fillColor=none;top=0;left=0;bottom=0;right=0;align=left;spacingLeft=6;overflow=hidden;whiteSpace=wrap;html=1;" parent="3oELxEXSJkwLXydsdeAX-30" vertex="1">
          <mxGeometry x="192" width="78" height="30" as="geometry">
            <mxRectangle width="78" height="30" as="alternateBounds" />
          </mxGeometry>
        </mxCell>
        <mxCell id="3oELxEXSJkwLXydsdeAX-38" style="shape=tableRow;horizontal=0;startSize=0;swimlaneHead=0;swimlaneBody=0;fillColor=none;collapsible=0;dropTarget=0;points=[[0,0.5],[1,0.5]];portConstraint=eastwest;top=0;left=0;right=0;bottom=0;" parent="0LHcCGDAPpz1XPyRw5mx-29" vertex="1">
          <mxGeometry y="350" width="270" height="30" as="geometry" />
        </mxCell>
        <mxCell id="3oELxEXSJkwLXydsdeAX-39" style="shape=partialRectangle;connectable=0;fillColor=none;top=0;left=0;bottom=0;right=0;editable=1;overflow=hidden;whiteSpace=wrap;html=1;" parent="3oELxEXSJkwLXydsdeAX-38" vertex="1">
          <mxGeometry width="30" height="30" as="geometry">
            <mxRectangle width="30" height="30" as="alternateBounds" />
          </mxGeometry>
        </mxCell>
        <mxCell id="3oELxEXSJkwLXydsdeAX-40" value="ORG_EMAIL" style="shape=partialRectangle;connectable=0;fillColor=none;top=0;left=0;bottom=0;right=0;align=left;spacingLeft=6;overflow=hidden;whiteSpace=wrap;html=1;" parent="3oELxEXSJkwLXydsdeAX-38" vertex="1">
          <mxGeometry x="30" width="162" height="30" as="geometry">
            <mxRectangle width="162" height="30" as="alternateBounds" />
          </mxGeometry>
        </mxCell>
        <mxCell id="3oELxEXSJkwLXydsdeAX-41" value="string" style="shape=partialRectangle;connectable=0;fillColor=none;top=0;left=0;bottom=0;right=0;align=left;spacingLeft=6;overflow=hidden;whiteSpace=wrap;html=1;" parent="3oELxEXSJkwLXydsdeAX-38" vertex="1">
          <mxGeometry x="192" width="78" height="30" as="geometry">
            <mxRectangle width="78" height="30" as="alternateBounds" />
          </mxGeometry>
        </mxCell>
        <mxCell id="0LHcCGDAPpz1XPyRw5mx-57" style="edgeStyle=orthogonalEdgeStyle;rounded=0;orthogonalLoop=1;jettySize=auto;html=1;exitX=1;exitY=0.5;exitDx=0;exitDy=0;entryX=-0.025;entryY=0.942;entryDx=0;entryDy=0;entryPerimeter=0;endArrow=ERoneToMany;endFill=0;startArrow=ERzeroToOne;startFill=0;endSize=15;startSize=15;dashed=1;" parent="1" source="0LHcCGDAPpz1XPyRw5mx-59" target="0LHcCGDAPpz1XPyRw5mx-14" edge="1">
          <mxGeometry relative="1" as="geometry" />
        </mxCell>
        <mxCell id="0LHcCGDAPpz1XPyRw5mx-58" value="supplies" style="edgeLabel;html=1;align=center;verticalAlign=middle;resizable=0;points=[];" parent="0LHcCGDAPpz1XPyRw5mx-57" vertex="1" connectable="0">
          <mxGeometry x="0.1253" y="10" relative="1" as="geometry">
            <mxPoint x="-9" y="-12" as="offset" />
          </mxGeometry>
        </mxCell>
        <mxCell id="0LHcCGDAPpz1XPyRw5mx-59" value="Supplier" style="shape=table;startSize=30;container=1;collapsible=1;childLayout=tableLayout;fixedRows=1;rowLines=0;fontStyle=1;align=center;resizeLast=1;html=1;" parent="1" vertex="1">
          <mxGeometry x="-30" y="1163.5" width="290" height="275" as="geometry" />
        </mxCell>
        <mxCell id="0LHcCGDAPpz1XPyRw5mx-60" value="" style="shape=tableRow;horizontal=0;startSize=0;swimlaneHead=0;swimlaneBody=0;fillColor=none;collapsible=0;dropTarget=0;points=[[0,0.5],[1,0.5]];portConstraint=eastwest;top=0;left=0;right=0;bottom=1;" parent="0LHcCGDAPpz1XPyRw5mx-59" vertex="1">
          <mxGeometry y="30" width="290" height="30" as="geometry" />
        </mxCell>
        <mxCell id="0LHcCGDAPpz1XPyRw5mx-61" value="PK" style="shape=partialRectangle;connectable=0;fillColor=none;top=0;left=0;bottom=0;right=0;fontStyle=1;overflow=hidden;whiteSpace=wrap;html=1;" parent="0LHcCGDAPpz1XPyRw5mx-60" vertex="1">
          <mxGeometry width="30" height="30" as="geometry">
            <mxRectangle width="30" height="30" as="alternateBounds" />
          </mxGeometry>
        </mxCell>
        <mxCell id="0LHcCGDAPpz1XPyRw5mx-62" value="&lt;b&gt;&lt;u&gt;SUP_ID&lt;/u&gt;&lt;/b&gt;" style="shape=partialRectangle;connectable=0;fillColor=none;top=0;left=0;bottom=0;right=0;align=left;spacingLeft=6;fontStyle=0;overflow=hidden;whiteSpace=wrap;html=1;" parent="0LHcCGDAPpz1XPyRw5mx-60" vertex="1">
          <mxGeometry x="30" width="160" height="30" as="geometry">
            <mxRectangle width="160" height="30" as="alternateBounds" />
          </mxGeometry>
        </mxCell>
        <mxCell id="0LHcCGDAPpz1XPyRw5mx-140" value="integer" style="shape=partialRectangle;connectable=0;fillColor=none;top=0;left=0;bottom=0;right=0;align=left;spacingLeft=6;fontStyle=0;overflow=hidden;whiteSpace=wrap;html=1;" parent="0LHcCGDAPpz1XPyRw5mx-60" vertex="1">
          <mxGeometry x="190" width="100" height="30" as="geometry">
            <mxRectangle width="100" height="30" as="alternateBounds" />
          </mxGeometry>
        </mxCell>
        <mxCell id="0LHcCGDAPpz1XPyRw5mx-63" value="" style="shape=tableRow;horizontal=0;startSize=0;swimlaneHead=0;swimlaneBody=0;fillColor=none;collapsible=0;dropTarget=0;points=[[0,0.5],[1,0.5]];portConstraint=eastwest;top=0;left=0;right=0;bottom=0;" parent="0LHcCGDAPpz1XPyRw5mx-59" vertex="1">
          <mxGeometry y="60" width="290" height="30" as="geometry" />
        </mxCell>
        <mxCell id="0LHcCGDAPpz1XPyRw5mx-64" value="" style="shape=partialRectangle;connectable=0;fillColor=none;top=0;left=0;bottom=0;right=0;editable=1;overflow=hidden;whiteSpace=wrap;html=1;" parent="0LHcCGDAPpz1XPyRw5mx-63" vertex="1">
          <mxGeometry width="30" height="30" as="geometry">
            <mxRectangle width="30" height="30" as="alternateBounds" />
          </mxGeometry>
        </mxCell>
        <mxCell id="0LHcCGDAPpz1XPyRw5mx-65" value="SUP_NAME" style="shape=partialRectangle;connectable=0;fillColor=none;top=0;left=0;bottom=0;right=0;align=left;spacingLeft=6;overflow=hidden;whiteSpace=wrap;html=1;" parent="0LHcCGDAPpz1XPyRw5mx-63" vertex="1">
          <mxGeometry x="30" width="160" height="30" as="geometry">
            <mxRectangle width="160" height="30" as="alternateBounds" />
          </mxGeometry>
        </mxCell>
        <mxCell id="0LHcCGDAPpz1XPyRw5mx-141" value="string" style="shape=partialRectangle;connectable=0;fillColor=none;top=0;left=0;bottom=0;right=0;align=left;spacingLeft=6;overflow=hidden;whiteSpace=wrap;html=1;" parent="0LHcCGDAPpz1XPyRw5mx-63" vertex="1">
          <mxGeometry x="190" width="100" height="30" as="geometry">
            <mxRectangle width="100" height="30" as="alternateBounds" />
          </mxGeometry>
        </mxCell>
        <mxCell id="0LHcCGDAPpz1XPyRw5mx-66" value="" style="shape=tableRow;horizontal=0;startSize=0;swimlaneHead=0;swimlaneBody=0;fillColor=none;collapsible=0;dropTarget=0;points=[[0,0.5],[1,0.5]];portConstraint=eastwest;top=0;left=0;right=0;bottom=0;" parent="0LHcCGDAPpz1XPyRw5mx-59" vertex="1">
          <mxGeometry y="90" width="290" height="35" as="geometry" />
        </mxCell>
        <mxCell id="0LHcCGDAPpz1XPyRw5mx-67" value="" style="shape=partialRectangle;connectable=0;fillColor=none;top=0;left=0;bottom=0;right=0;editable=1;overflow=hidden;whiteSpace=wrap;html=1;" parent="0LHcCGDAPpz1XPyRw5mx-66" vertex="1">
          <mxGeometry width="30" height="35" as="geometry">
            <mxRectangle width="30" height="35" as="alternateBounds" />
          </mxGeometry>
        </mxCell>
        <mxCell id="0LHcCGDAPpz1XPyRw5mx-68" value="SUP_ADDRESS" style="shape=partialRectangle;connectable=0;fillColor=none;top=0;left=0;bottom=0;right=0;align=left;spacingLeft=6;overflow=hidden;whiteSpace=wrap;html=1;" parent="0LHcCGDAPpz1XPyRw5mx-66" vertex="1">
          <mxGeometry x="30" width="160" height="35" as="geometry">
            <mxRectangle width="160" height="35" as="alternateBounds" />
          </mxGeometry>
        </mxCell>
        <mxCell id="0LHcCGDAPpz1XPyRw5mx-142" value="string" style="shape=partialRectangle;connectable=0;fillColor=none;top=0;left=0;bottom=0;right=0;align=left;spacingLeft=6;overflow=hidden;whiteSpace=wrap;html=1;" parent="0LHcCGDAPpz1XPyRw5mx-66" vertex="1">
          <mxGeometry x="190" width="100" height="35" as="geometry">
            <mxRectangle width="100" height="35" as="alternateBounds" />
          </mxGeometry>
        </mxCell>
        <mxCell id="0LHcCGDAPpz1XPyRw5mx-75" style="shape=tableRow;horizontal=0;startSize=0;swimlaneHead=0;swimlaneBody=0;fillColor=none;collapsible=0;dropTarget=0;points=[[0,0.5],[1,0.5]];portConstraint=eastwest;top=0;left=0;right=0;bottom=0;" parent="0LHcCGDAPpz1XPyRw5mx-59" vertex="1">
          <mxGeometry y="125" width="290" height="30" as="geometry" />
        </mxCell>
        <mxCell id="0LHcCGDAPpz1XPyRw5mx-76" style="shape=partialRectangle;connectable=0;fillColor=none;top=0;left=0;bottom=0;right=0;editable=1;overflow=hidden;whiteSpace=wrap;html=1;" parent="0LHcCGDAPpz1XPyRw5mx-75" vertex="1">
          <mxGeometry width="30" height="30" as="geometry">
            <mxRectangle width="30" height="30" as="alternateBounds" />
          </mxGeometry>
        </mxCell>
        <mxCell id="0LHcCGDAPpz1XPyRw5mx-77" value="SUP_ZIPCODE" style="shape=partialRectangle;connectable=0;fillColor=none;top=0;left=0;bottom=0;right=0;align=left;spacingLeft=6;overflow=hidden;whiteSpace=wrap;html=1;" parent="0LHcCGDAPpz1XPyRw5mx-75" vertex="1">
          <mxGeometry x="30" width="160" height="30" as="geometry">
            <mxRectangle width="160" height="30" as="alternateBounds" />
          </mxGeometry>
        </mxCell>
        <mxCell id="0LHcCGDAPpz1XPyRw5mx-145" value="integer" style="shape=partialRectangle;connectable=0;fillColor=none;top=0;left=0;bottom=0;right=0;align=left;spacingLeft=6;overflow=hidden;whiteSpace=wrap;html=1;" parent="0LHcCGDAPpz1XPyRw5mx-75" vertex="1">
          <mxGeometry x="190" width="100" height="30" as="geometry">
            <mxRectangle width="100" height="30" as="alternateBounds" />
          </mxGeometry>
        </mxCell>
        <mxCell id="0LHcCGDAPpz1XPyRw5mx-81" style="shape=tableRow;horizontal=0;startSize=0;swimlaneHead=0;swimlaneBody=0;fillColor=none;collapsible=0;dropTarget=0;points=[[0,0.5],[1,0.5]];portConstraint=eastwest;top=0;left=0;right=0;bottom=0;" parent="0LHcCGDAPpz1XPyRw5mx-59" vertex="1">
          <mxGeometry y="155" width="290" height="30" as="geometry" />
        </mxCell>
        <mxCell id="0LHcCGDAPpz1XPyRw5mx-82" style="shape=partialRectangle;connectable=0;fillColor=none;top=0;left=0;bottom=0;right=0;editable=1;overflow=hidden;whiteSpace=wrap;html=1;" parent="0LHcCGDAPpz1XPyRw5mx-81" vertex="1">
          <mxGeometry width="30" height="30" as="geometry">
            <mxRectangle width="30" height="30" as="alternateBounds" />
          </mxGeometry>
        </mxCell>
        <mxCell id="0LHcCGDAPpz1XPyRw5mx-83" value="SUP_PHONE" style="shape=partialRectangle;connectable=0;fillColor=none;top=0;left=0;bottom=0;right=0;align=left;spacingLeft=6;overflow=hidden;whiteSpace=wrap;html=1;" parent="0LHcCGDAPpz1XPyRw5mx-81" vertex="1">
          <mxGeometry x="30" width="160" height="30" as="geometry">
            <mxRectangle width="160" height="30" as="alternateBounds" />
          </mxGeometry>
        </mxCell>
        <mxCell id="0LHcCGDAPpz1XPyRw5mx-147" value="string" style="shape=partialRectangle;connectable=0;fillColor=none;top=0;left=0;bottom=0;right=0;align=left;spacingLeft=6;overflow=hidden;whiteSpace=wrap;html=1;" parent="0LHcCGDAPpz1XPyRw5mx-81" vertex="1">
          <mxGeometry x="190" width="100" height="30" as="geometry">
            <mxRectangle width="100" height="30" as="alternateBounds" />
          </mxGeometry>
        </mxCell>
        <mxCell id="0LHcCGDAPpz1XPyRw5mx-137" style="shape=tableRow;horizontal=0;startSize=0;swimlaneHead=0;swimlaneBody=0;fillColor=none;collapsible=0;dropTarget=0;points=[[0,0.5],[1,0.5]];portConstraint=eastwest;top=0;left=0;right=0;bottom=0;" parent="0LHcCGDAPpz1XPyRw5mx-59" vertex="1">
          <mxGeometry y="185" width="290" height="30" as="geometry" />
        </mxCell>
        <mxCell id="0LHcCGDAPpz1XPyRw5mx-138" style="shape=partialRectangle;connectable=0;fillColor=none;top=0;left=0;bottom=0;right=0;editable=1;overflow=hidden;whiteSpace=wrap;html=1;" parent="0LHcCGDAPpz1XPyRw5mx-137" vertex="1">
          <mxGeometry width="30" height="30" as="geometry">
            <mxRectangle width="30" height="30" as="alternateBounds" />
          </mxGeometry>
        </mxCell>
        <mxCell id="0LHcCGDAPpz1XPyRw5mx-139" value="SUP_CON_FNAME" style="shape=partialRectangle;connectable=0;fillColor=none;top=0;left=0;bottom=0;right=0;align=left;spacingLeft=6;overflow=hidden;whiteSpace=wrap;html=1;" parent="0LHcCGDAPpz1XPyRw5mx-137" vertex="1">
          <mxGeometry x="30" width="160" height="30" as="geometry">
            <mxRectangle width="160" height="30" as="alternateBounds" />
          </mxGeometry>
        </mxCell>
        <mxCell id="0LHcCGDAPpz1XPyRw5mx-149" value="string" style="shape=partialRectangle;connectable=0;fillColor=none;top=0;left=0;bottom=0;right=0;align=left;spacingLeft=6;overflow=hidden;whiteSpace=wrap;html=1;" parent="0LHcCGDAPpz1XPyRw5mx-137" vertex="1">
          <mxGeometry x="190" width="100" height="30" as="geometry">
            <mxRectangle width="100" height="30" as="alternateBounds" />
          </mxGeometry>
        </mxCell>
        <mxCell id="0LHcCGDAPpz1XPyRw5mx-134" style="shape=tableRow;horizontal=0;startSize=0;swimlaneHead=0;swimlaneBody=0;fillColor=none;collapsible=0;dropTarget=0;points=[[0,0.5],[1,0.5]];portConstraint=eastwest;top=0;left=0;right=0;bottom=0;" parent="0LHcCGDAPpz1XPyRw5mx-59" vertex="1">
          <mxGeometry y="215" width="290" height="30" as="geometry" />
        </mxCell>
        <mxCell id="0LHcCGDAPpz1XPyRw5mx-135" style="shape=partialRectangle;connectable=0;fillColor=none;top=0;left=0;bottom=0;right=0;editable=1;overflow=hidden;whiteSpace=wrap;html=1;" parent="0LHcCGDAPpz1XPyRw5mx-134" vertex="1">
          <mxGeometry width="30" height="30" as="geometry">
            <mxRectangle width="30" height="30" as="alternateBounds" />
          </mxGeometry>
        </mxCell>
        <mxCell id="0LHcCGDAPpz1XPyRw5mx-136" value="SUP_CON_LNAME" style="shape=partialRectangle;connectable=0;fillColor=none;top=0;left=0;bottom=0;right=0;align=left;spacingLeft=6;overflow=hidden;whiteSpace=wrap;html=1;" parent="0LHcCGDAPpz1XPyRw5mx-134" vertex="1">
          <mxGeometry x="30" width="160" height="30" as="geometry">
            <mxRectangle width="160" height="30" as="alternateBounds" />
          </mxGeometry>
        </mxCell>
        <mxCell id="0LHcCGDAPpz1XPyRw5mx-150" value="string" style="shape=partialRectangle;connectable=0;fillColor=none;top=0;left=0;bottom=0;right=0;align=left;spacingLeft=6;overflow=hidden;whiteSpace=wrap;html=1;" parent="0LHcCGDAPpz1XPyRw5mx-134" vertex="1">
          <mxGeometry x="190" width="100" height="30" as="geometry">
            <mxRectangle width="100" height="30" as="alternateBounds" />
          </mxGeometry>
        </mxCell>
        <mxCell id="0LHcCGDAPpz1XPyRw5mx-131" style="shape=tableRow;horizontal=0;startSize=0;swimlaneHead=0;swimlaneBody=0;fillColor=none;collapsible=0;dropTarget=0;points=[[0,0.5],[1,0.5]];portConstraint=eastwest;top=0;left=0;right=0;bottom=0;" parent="0LHcCGDAPpz1XPyRw5mx-59" vertex="1">
          <mxGeometry y="245" width="290" height="30" as="geometry" />
        </mxCell>
        <mxCell id="0LHcCGDAPpz1XPyRw5mx-132" style="shape=partialRectangle;connectable=0;fillColor=none;top=0;left=0;bottom=0;right=0;editable=1;overflow=hidden;whiteSpace=wrap;html=1;" parent="0LHcCGDAPpz1XPyRw5mx-131" vertex="1">
          <mxGeometry width="30" height="30" as="geometry">
            <mxRectangle width="30" height="30" as="alternateBounds" />
          </mxGeometry>
        </mxCell>
        <mxCell id="0LHcCGDAPpz1XPyRw5mx-133" value="SUP_CON_PHONE" style="shape=partialRectangle;connectable=0;fillColor=none;top=0;left=0;bottom=0;right=0;align=left;spacingLeft=6;overflow=hidden;whiteSpace=wrap;html=1;" parent="0LHcCGDAPpz1XPyRw5mx-131" vertex="1">
          <mxGeometry x="30" width="160" height="30" as="geometry">
            <mxRectangle width="160" height="30" as="alternateBounds" />
          </mxGeometry>
        </mxCell>
        <mxCell id="0LHcCGDAPpz1XPyRw5mx-151" value="string" style="shape=partialRectangle;connectable=0;fillColor=none;top=0;left=0;bottom=0;right=0;align=left;spacingLeft=6;overflow=hidden;whiteSpace=wrap;html=1;" parent="0LHcCGDAPpz1XPyRw5mx-131" vertex="1">
          <mxGeometry x="190" width="100" height="30" as="geometry">
            <mxRectangle width="100" height="30" as="alternateBounds" />
          </mxGeometry>
        </mxCell>
        <mxCell id="0LHcCGDAPpz1XPyRw5mx-89" value="Order" style="shape=table;startSize=30;container=1;collapsible=1;childLayout=tableLayout;fixedRows=1;rowLines=0;fontStyle=1;align=center;resizeLast=1;html=1;" parent="1" vertex="1">
          <mxGeometry x="790" y="1560" width="300" height="180" as="geometry" />
        </mxCell>
        <mxCell id="0LHcCGDAPpz1XPyRw5mx-90" value="" style="shape=tableRow;horizontal=0;startSize=0;swimlaneHead=0;swimlaneBody=0;fillColor=none;collapsible=0;dropTarget=0;points=[[0,0.5],[1,0.5]];portConstraint=eastwest;top=0;left=0;right=0;bottom=1;" parent="0LHcCGDAPpz1XPyRw5mx-89" vertex="1">
          <mxGeometry y="30" width="300" height="30" as="geometry" />
        </mxCell>
        <mxCell id="0LHcCGDAPpz1XPyRw5mx-91" value="&lt;span style=&quot;font-weight: normal;&quot;&gt;PK&lt;/span&gt;" style="shape=partialRectangle;connectable=0;fillColor=none;top=0;left=0;bottom=0;right=0;fontStyle=1;overflow=hidden;whiteSpace=wrap;html=1;" parent="0LHcCGDAPpz1XPyRw5mx-90" vertex="1">
          <mxGeometry width="30" height="30" as="geometry">
            <mxRectangle width="30" height="30" as="alternateBounds" />
          </mxGeometry>
        </mxCell>
        <mxCell id="0LHcCGDAPpz1XPyRw5mx-92" value="ORDER_ID" style="shape=partialRectangle;connectable=0;fillColor=none;top=0;left=0;bottom=0;right=0;align=left;spacingLeft=6;fontStyle=5;overflow=hidden;whiteSpace=wrap;html=1;" parent="0LHcCGDAPpz1XPyRw5mx-90" vertex="1">
          <mxGeometry x="30" width="160" height="30" as="geometry">
            <mxRectangle width="160" height="30" as="alternateBounds" />
          </mxGeometry>
        </mxCell>
        <mxCell id="0LHcCGDAPpz1XPyRw5mx-160" value="integer" style="shape=partialRectangle;connectable=0;fillColor=none;top=0;left=0;bottom=0;right=0;align=left;spacingLeft=6;fontStyle=0;overflow=hidden;whiteSpace=wrap;html=1;" parent="0LHcCGDAPpz1XPyRw5mx-90" vertex="1">
          <mxGeometry x="190" width="110" height="30" as="geometry">
            <mxRectangle width="110" height="30" as="alternateBounds" />
          </mxGeometry>
        </mxCell>
        <mxCell id="0LHcCGDAPpz1XPyRw5mx-93" value="" style="shape=tableRow;horizontal=0;startSize=0;swimlaneHead=0;swimlaneBody=0;fillColor=none;collapsible=0;dropTarget=0;points=[[0,0.5],[1,0.5]];portConstraint=eastwest;top=0;left=0;right=0;bottom=0;" parent="0LHcCGDAPpz1XPyRw5mx-89" vertex="1">
          <mxGeometry y="60" width="300" height="30" as="geometry" />
        </mxCell>
        <mxCell id="0LHcCGDAPpz1XPyRw5mx-94" value="FK1" style="shape=partialRectangle;connectable=0;fillColor=none;top=0;left=0;bottom=0;right=0;editable=1;overflow=hidden;whiteSpace=wrap;html=1;" parent="0LHcCGDAPpz1XPyRw5mx-93" vertex="1">
          <mxGeometry width="30" height="30" as="geometry">
            <mxRectangle width="30" height="30" as="alternateBounds" />
          </mxGeometry>
        </mxCell>
        <mxCell id="0LHcCGDAPpz1XPyRw5mx-95" value="CUST_ID" style="shape=partialRectangle;connectable=0;fillColor=none;top=0;left=0;bottom=0;right=0;align=left;spacingLeft=6;overflow=hidden;whiteSpace=wrap;html=1;" parent="0LHcCGDAPpz1XPyRw5mx-93" vertex="1">
          <mxGeometry x="30" width="160" height="30" as="geometry">
            <mxRectangle width="160" height="30" as="alternateBounds" />
          </mxGeometry>
        </mxCell>
        <mxCell id="0LHcCGDAPpz1XPyRw5mx-161" value="integer" style="shape=partialRectangle;connectable=0;fillColor=none;top=0;left=0;bottom=0;right=0;align=left;spacingLeft=6;overflow=hidden;whiteSpace=wrap;html=1;" parent="0LHcCGDAPpz1XPyRw5mx-93" vertex="1">
          <mxGeometry x="190" width="110" height="30" as="geometry">
            <mxRectangle width="110" height="30" as="alternateBounds" />
          </mxGeometry>
        </mxCell>
        <mxCell id="0LHcCGDAPpz1XPyRw5mx-96" value="" style="shape=tableRow;horizontal=0;startSize=0;swimlaneHead=0;swimlaneBody=0;fillColor=none;collapsible=0;dropTarget=0;points=[[0,0.5],[1,0.5]];portConstraint=eastwest;top=0;left=0;right=0;bottom=0;" parent="0LHcCGDAPpz1XPyRw5mx-89" vertex="1">
          <mxGeometry y="90" width="300" height="30" as="geometry" />
        </mxCell>
        <mxCell id="0LHcCGDAPpz1XPyRw5mx-97" value="" style="shape=partialRectangle;connectable=0;fillColor=none;top=0;left=0;bottom=0;right=0;editable=1;overflow=hidden;whiteSpace=wrap;html=1;" parent="0LHcCGDAPpz1XPyRw5mx-96" vertex="1">
          <mxGeometry width="30" height="30" as="geometry">
            <mxRectangle width="30" height="30" as="alternateBounds" />
          </mxGeometry>
        </mxCell>
        <mxCell id="0LHcCGDAPpz1XPyRw5mx-98" value="ORDER_DATE" style="shape=partialRectangle;connectable=0;fillColor=none;top=0;left=0;bottom=0;right=0;align=left;spacingLeft=6;overflow=hidden;whiteSpace=wrap;html=1;" parent="0LHcCGDAPpz1XPyRw5mx-96" vertex="1">
          <mxGeometry x="30" width="160" height="30" as="geometry">
            <mxRectangle width="160" height="30" as="alternateBounds" />
          </mxGeometry>
        </mxCell>
        <mxCell id="0LHcCGDAPpz1XPyRw5mx-162" value="string" style="shape=partialRectangle;connectable=0;fillColor=none;top=0;left=0;bottom=0;right=0;align=left;spacingLeft=6;overflow=hidden;whiteSpace=wrap;html=1;" parent="0LHcCGDAPpz1XPyRw5mx-96" vertex="1">
          <mxGeometry x="190" width="110" height="30" as="geometry">
            <mxRectangle width="110" height="30" as="alternateBounds" />
          </mxGeometry>
        </mxCell>
        <mxCell id="0LHcCGDAPpz1XPyRw5mx-99" value="" style="shape=tableRow;horizontal=0;startSize=0;swimlaneHead=0;swimlaneBody=0;fillColor=none;collapsible=0;dropTarget=0;points=[[0,0.5],[1,0.5]];portConstraint=eastwest;top=0;left=0;right=0;bottom=0;" parent="0LHcCGDAPpz1XPyRw5mx-89" vertex="1">
          <mxGeometry y="120" width="300" height="30" as="geometry" />
        </mxCell>
        <mxCell id="0LHcCGDAPpz1XPyRw5mx-100" value="" style="shape=partialRectangle;connectable=0;fillColor=none;top=0;left=0;bottom=0;right=0;editable=1;overflow=hidden;whiteSpace=wrap;html=1;" parent="0LHcCGDAPpz1XPyRw5mx-99" vertex="1">
          <mxGeometry width="30" height="30" as="geometry">
            <mxRectangle width="30" height="30" as="alternateBounds" />
          </mxGeometry>
        </mxCell>
        <mxCell id="0LHcCGDAPpz1XPyRw5mx-101" value="ORDER_DELIVERY_DATE" style="shape=partialRectangle;connectable=0;fillColor=none;top=0;left=0;bottom=0;right=0;align=left;spacingLeft=6;overflow=hidden;whiteSpace=wrap;html=1;" parent="0LHcCGDAPpz1XPyRw5mx-99" vertex="1">
          <mxGeometry x="30" width="160" height="30" as="geometry">
            <mxRectangle width="160" height="30" as="alternateBounds" />
          </mxGeometry>
        </mxCell>
        <mxCell id="0LHcCGDAPpz1XPyRw5mx-163" value="string" style="shape=partialRectangle;connectable=0;fillColor=none;top=0;left=0;bottom=0;right=0;align=left;spacingLeft=6;overflow=hidden;whiteSpace=wrap;html=1;" parent="0LHcCGDAPpz1XPyRw5mx-99" vertex="1">
          <mxGeometry x="190" width="110" height="30" as="geometry">
            <mxRectangle width="110" height="30" as="alternateBounds" />
          </mxGeometry>
        </mxCell>
        <mxCell id="0LHcCGDAPpz1XPyRw5mx-178" style="shape=tableRow;horizontal=0;startSize=0;swimlaneHead=0;swimlaneBody=0;fillColor=none;collapsible=0;dropTarget=0;points=[[0,0.5],[1,0.5]];portConstraint=eastwest;top=0;left=0;right=0;bottom=0;" parent="0LHcCGDAPpz1XPyRw5mx-89" vertex="1">
          <mxGeometry y="150" width="300" height="30" as="geometry" />
        </mxCell>
        <mxCell id="0LHcCGDAPpz1XPyRw5mx-179" style="shape=partialRectangle;connectable=0;fillColor=none;top=0;left=0;bottom=0;right=0;editable=1;overflow=hidden;whiteSpace=wrap;html=1;" parent="0LHcCGDAPpz1XPyRw5mx-178" vertex="1">
          <mxGeometry width="30" height="30" as="geometry">
            <mxRectangle width="30" height="30" as="alternateBounds" />
          </mxGeometry>
        </mxCell>
        <mxCell id="0LHcCGDAPpz1XPyRw5mx-180" value="ORDER_TOTAL" style="shape=partialRectangle;connectable=0;fillColor=none;top=0;left=0;bottom=0;right=0;align=left;spacingLeft=6;overflow=hidden;whiteSpace=wrap;html=1;" parent="0LHcCGDAPpz1XPyRw5mx-178" vertex="1">
          <mxGeometry x="30" width="160" height="30" as="geometry">
            <mxRectangle width="160" height="30" as="alternateBounds" />
          </mxGeometry>
        </mxCell>
        <mxCell id="0LHcCGDAPpz1XPyRw5mx-181" value="float" style="shape=partialRectangle;connectable=0;fillColor=none;top=0;left=0;bottom=0;right=0;align=left;spacingLeft=6;overflow=hidden;whiteSpace=wrap;html=1;" parent="0LHcCGDAPpz1XPyRw5mx-178" vertex="1">
          <mxGeometry x="190" width="110" height="30" as="geometry">
            <mxRectangle width="110" height="30" as="alternateBounds" />
          </mxGeometry>
        </mxCell>
        <mxCell id="0LHcCGDAPpz1XPyRw5mx-102" value="creates many" style="edgeStyle=orthogonalEdgeStyle;rounded=0;orthogonalLoop=1;jettySize=auto;html=1;startArrow=ERoneToMany;startFill=0;endArrow=ERmandOne;endFill=0;endSize=15;startSize=15;dashed=1;entryX=1;entryY=0.5;entryDx=0;entryDy=0;exitX=-0.015;exitY=-0.094;exitDx=0;exitDy=0;exitPerimeter=0;" parent="1" edge="1" target="0Wes0kT12-fcZN0h_VUO-40" source="0LHcCGDAPpz1XPyRw5mx-99">
          <mxGeometry x="0.2051" y="-22" relative="1" as="geometry">
            <mxPoint x="790" y="1665" as="sourcePoint" />
            <mxPoint x="600" y="1666" as="targetPoint" />
            <mxPoint as="offset" />
          </mxGeometry>
        </mxCell>
        <mxCell id="0LHcCGDAPpz1XPyRw5mx-103" value="Line" style="shape=table;startSize=30;container=1;collapsible=1;childLayout=tableLayout;fixedRows=1;rowLines=0;fontStyle=1;align=center;resizeLast=1;html=1;whiteSpace=wrap;" parent="1" vertex="1">
          <mxGeometry x="800" y="1247" width="260" height="203" as="geometry" />
        </mxCell>
        <mxCell id="0LHcCGDAPpz1XPyRw5mx-104" value="" style="shape=tableRow;horizontal=0;startSize=0;swimlaneHead=0;swimlaneBody=0;fillColor=none;collapsible=0;dropTarget=0;points=[[0,0.5],[1,0.5]];portConstraint=eastwest;top=0;left=0;right=0;bottom=0;html=1;" parent="0LHcCGDAPpz1XPyRw5mx-103" vertex="1">
          <mxGeometry y="30" width="260" height="30" as="geometry" />
        </mxCell>
        <mxCell id="0LHcCGDAPpz1XPyRw5mx-105" value="PK,FK1" style="shape=partialRectangle;connectable=0;fillColor=none;top=0;left=0;bottom=0;right=0;fontStyle=1;overflow=hidden;html=1;whiteSpace=wrap;" parent="0LHcCGDAPpz1XPyRw5mx-104" vertex="1">
          <mxGeometry width="60" height="30" as="geometry">
            <mxRectangle width="60" height="30" as="alternateBounds" />
          </mxGeometry>
        </mxCell>
        <mxCell id="0LHcCGDAPpz1XPyRw5mx-106" value="ORDER_ID" style="shape=partialRectangle;connectable=0;fillColor=none;top=0;left=0;bottom=0;right=0;align=left;spacingLeft=6;fontStyle=5;overflow=hidden;html=1;whiteSpace=wrap;" parent="0LHcCGDAPpz1XPyRw5mx-104" vertex="1">
          <mxGeometry x="60" width="120" height="30" as="geometry">
            <mxRectangle width="120" height="30" as="alternateBounds" />
          </mxGeometry>
        </mxCell>
        <mxCell id="0LHcCGDAPpz1XPyRw5mx-156" value="&lt;span style=&quot;font-weight: 400;&quot;&gt;integer&lt;/span&gt;" style="shape=partialRectangle;connectable=0;fillColor=none;top=0;left=0;bottom=0;right=0;align=left;spacingLeft=6;fontStyle=5;overflow=hidden;html=1;whiteSpace=wrap;" parent="0LHcCGDAPpz1XPyRw5mx-104" vertex="1">
          <mxGeometry x="180" width="80" height="30" as="geometry">
            <mxRectangle width="80" height="30" as="alternateBounds" />
          </mxGeometry>
        </mxCell>
        <mxCell id="0LHcCGDAPpz1XPyRw5mx-107" value="" style="shape=tableRow;horizontal=0;startSize=0;swimlaneHead=0;swimlaneBody=0;fillColor=none;collapsible=0;dropTarget=0;points=[[0,0.5],[1,0.5]];portConstraint=eastwest;top=0;left=0;right=0;bottom=1;html=1;" parent="0LHcCGDAPpz1XPyRw5mx-103" vertex="1">
          <mxGeometry y="60" width="260" height="33" as="geometry" />
        </mxCell>
        <mxCell id="0LHcCGDAPpz1XPyRw5mx-108" value="PK" style="shape=partialRectangle;connectable=0;fillColor=none;top=0;left=0;bottom=0;right=0;fontStyle=1;overflow=hidden;html=1;whiteSpace=wrap;" parent="0LHcCGDAPpz1XPyRw5mx-107" vertex="1">
          <mxGeometry width="60" height="33" as="geometry">
            <mxRectangle width="60" height="33" as="alternateBounds" />
          </mxGeometry>
        </mxCell>
        <mxCell id="0LHcCGDAPpz1XPyRw5mx-109" value="LINE_NUM" style="shape=partialRectangle;connectable=0;fillColor=none;top=0;left=0;bottom=0;right=0;align=left;spacingLeft=6;fontStyle=5;overflow=hidden;html=1;whiteSpace=wrap;" parent="0LHcCGDAPpz1XPyRw5mx-107" vertex="1">
          <mxGeometry x="60" width="120" height="33" as="geometry">
            <mxRectangle width="120" height="33" as="alternateBounds" />
          </mxGeometry>
        </mxCell>
        <mxCell id="0LHcCGDAPpz1XPyRw5mx-157" value="&lt;span style=&quot;font-weight: normal;&quot;&gt;integer&lt;/span&gt;" style="shape=partialRectangle;connectable=0;fillColor=none;top=0;left=0;bottom=0;right=0;align=left;spacingLeft=6;fontStyle=5;overflow=hidden;html=1;whiteSpace=wrap;" parent="0LHcCGDAPpz1XPyRw5mx-107" vertex="1">
          <mxGeometry x="180" width="80" height="33" as="geometry">
            <mxRectangle width="80" height="33" as="alternateBounds" />
          </mxGeometry>
        </mxCell>
        <mxCell id="0LHcCGDAPpz1XPyRw5mx-110" value="" style="shape=tableRow;horizontal=0;startSize=0;swimlaneHead=0;swimlaneBody=0;fillColor=none;collapsible=0;dropTarget=0;points=[[0,0.5],[1,0.5]];portConstraint=eastwest;top=0;left=0;right=0;bottom=0;html=1;" parent="0LHcCGDAPpz1XPyRw5mx-103" vertex="1">
          <mxGeometry y="93" width="260" height="30" as="geometry" />
        </mxCell>
        <mxCell id="0LHcCGDAPpz1XPyRw5mx-111" value="FK2" style="shape=partialRectangle;connectable=0;fillColor=none;top=0;left=0;bottom=0;right=0;editable=1;overflow=hidden;html=1;whiteSpace=wrap;" parent="0LHcCGDAPpz1XPyRw5mx-110" vertex="1">
          <mxGeometry width="60" height="30" as="geometry">
            <mxRectangle width="60" height="30" as="alternateBounds" />
          </mxGeometry>
        </mxCell>
        <mxCell id="0LHcCGDAPpz1XPyRw5mx-112" value="PRODUCT_ID" style="shape=partialRectangle;connectable=0;fillColor=none;top=0;left=0;bottom=0;right=0;align=left;spacingLeft=6;overflow=hidden;html=1;whiteSpace=wrap;" parent="0LHcCGDAPpz1XPyRw5mx-110" vertex="1">
          <mxGeometry x="60" width="120" height="30" as="geometry">
            <mxRectangle width="120" height="30" as="alternateBounds" />
          </mxGeometry>
        </mxCell>
        <mxCell id="0LHcCGDAPpz1XPyRw5mx-158" value="integer" style="shape=partialRectangle;connectable=0;fillColor=none;top=0;left=0;bottom=0;right=0;align=left;spacingLeft=6;overflow=hidden;html=1;whiteSpace=wrap;" parent="0LHcCGDAPpz1XPyRw5mx-110" vertex="1">
          <mxGeometry x="180" width="80" height="30" as="geometry">
            <mxRectangle width="80" height="30" as="alternateBounds" />
          </mxGeometry>
        </mxCell>
        <mxCell id="0Wes0kT12-fcZN0h_VUO-183" style="shape=tableRow;horizontal=0;startSize=0;swimlaneHead=0;swimlaneBody=0;fillColor=none;collapsible=0;dropTarget=0;points=[[0,0.5],[1,0.5]];portConstraint=eastwest;top=0;left=0;right=0;bottom=0;html=1;" parent="0LHcCGDAPpz1XPyRw5mx-103" vertex="1">
          <mxGeometry y="123" width="260" height="20" as="geometry" />
        </mxCell>
        <mxCell id="0Wes0kT12-fcZN0h_VUO-184" value="" style="shape=partialRectangle;connectable=0;fillColor=none;top=0;left=0;bottom=0;right=0;editable=1;overflow=hidden;html=1;whiteSpace=wrap;" parent="0Wes0kT12-fcZN0h_VUO-183" vertex="1">
          <mxGeometry width="60" height="20" as="geometry">
            <mxRectangle width="60" height="20" as="alternateBounds" />
          </mxGeometry>
        </mxCell>
        <mxCell id="0Wes0kT12-fcZN0h_VUO-185" value="PRODUCT_PRICE" style="shape=partialRectangle;connectable=0;fillColor=none;top=0;left=0;bottom=0;right=0;align=left;spacingLeft=6;overflow=hidden;html=1;whiteSpace=wrap;" parent="0Wes0kT12-fcZN0h_VUO-183" vertex="1">
          <mxGeometry x="60" width="120" height="20" as="geometry">
            <mxRectangle width="120" height="20" as="alternateBounds" />
          </mxGeometry>
        </mxCell>
        <mxCell id="0Wes0kT12-fcZN0h_VUO-186" value="float" style="shape=partialRectangle;connectable=0;fillColor=none;top=0;left=0;bottom=0;right=0;align=left;spacingLeft=6;overflow=hidden;html=1;whiteSpace=wrap;" parent="0Wes0kT12-fcZN0h_VUO-183" vertex="1">
          <mxGeometry x="180" width="80" height="20" as="geometry">
            <mxRectangle width="80" height="20" as="alternateBounds" />
          </mxGeometry>
        </mxCell>
        <mxCell id="0LHcCGDAPpz1XPyRw5mx-113" value="" style="shape=tableRow;horizontal=0;startSize=0;swimlaneHead=0;swimlaneBody=0;fillColor=none;collapsible=0;dropTarget=0;points=[[0,0.5],[1,0.5]];portConstraint=eastwest;top=0;left=0;right=0;bottom=0;html=1;" parent="0LHcCGDAPpz1XPyRw5mx-103" vertex="1">
          <mxGeometry y="143" width="260" height="30" as="geometry" />
        </mxCell>
        <mxCell id="0LHcCGDAPpz1XPyRw5mx-114" value="" style="shape=partialRectangle;connectable=0;fillColor=none;top=0;left=0;bottom=0;right=0;editable=1;overflow=hidden;html=1;whiteSpace=wrap;" parent="0LHcCGDAPpz1XPyRw5mx-113" vertex="1">
          <mxGeometry width="60" height="30" as="geometry">
            <mxRectangle width="60" height="30" as="alternateBounds" />
          </mxGeometry>
        </mxCell>
        <mxCell id="0LHcCGDAPpz1XPyRw5mx-115" value="LINE_QTY" style="shape=partialRectangle;connectable=0;fillColor=none;top=0;left=0;bottom=0;right=0;align=left;spacingLeft=6;overflow=hidden;html=1;whiteSpace=wrap;" parent="0LHcCGDAPpz1XPyRw5mx-113" vertex="1">
          <mxGeometry x="60" width="120" height="30" as="geometry">
            <mxRectangle width="120" height="30" as="alternateBounds" />
          </mxGeometry>
        </mxCell>
        <mxCell id="0LHcCGDAPpz1XPyRw5mx-159" value="integer" style="shape=partialRectangle;connectable=0;fillColor=none;top=0;left=0;bottom=0;right=0;align=left;spacingLeft=6;overflow=hidden;html=1;whiteSpace=wrap;" parent="0LHcCGDAPpz1XPyRw5mx-113" vertex="1">
          <mxGeometry x="180" width="80" height="30" as="geometry">
            <mxRectangle width="80" height="30" as="alternateBounds" />
          </mxGeometry>
        </mxCell>
        <mxCell id="0LHcCGDAPpz1XPyRw5mx-182" style="shape=tableRow;horizontal=0;startSize=0;swimlaneHead=0;swimlaneBody=0;fillColor=none;collapsible=0;dropTarget=0;points=[[0,0.5],[1,0.5]];portConstraint=eastwest;top=0;left=0;right=0;bottom=0;html=1;" parent="0LHcCGDAPpz1XPyRw5mx-103" vertex="1">
          <mxGeometry y="173" width="260" height="30" as="geometry" />
        </mxCell>
        <mxCell id="0LHcCGDAPpz1XPyRw5mx-183" style="shape=partialRectangle;connectable=0;fillColor=none;top=0;left=0;bottom=0;right=0;editable=1;overflow=hidden;html=1;whiteSpace=wrap;" parent="0LHcCGDAPpz1XPyRw5mx-182" vertex="1">
          <mxGeometry width="60" height="30" as="geometry">
            <mxRectangle width="60" height="30" as="alternateBounds" />
          </mxGeometry>
        </mxCell>
        <mxCell id="0LHcCGDAPpz1XPyRw5mx-184" value="LINE_PRICE" style="shape=partialRectangle;connectable=0;fillColor=none;top=0;left=0;bottom=0;right=0;align=left;spacingLeft=6;overflow=hidden;html=1;whiteSpace=wrap;" parent="0LHcCGDAPpz1XPyRw5mx-182" vertex="1">
          <mxGeometry x="60" width="120" height="30" as="geometry">
            <mxRectangle width="120" height="30" as="alternateBounds" />
          </mxGeometry>
        </mxCell>
        <mxCell id="0LHcCGDAPpz1XPyRw5mx-185" value="float" style="shape=partialRectangle;connectable=0;fillColor=none;top=0;left=0;bottom=0;right=0;align=left;spacingLeft=6;overflow=hidden;html=1;whiteSpace=wrap;" parent="0LHcCGDAPpz1XPyRw5mx-182" vertex="1">
          <mxGeometry x="180" width="80" height="30" as="geometry">
            <mxRectangle width="80" height="30" as="alternateBounds" />
          </mxGeometry>
        </mxCell>
        <mxCell id="0LHcCGDAPpz1XPyRw5mx-116" value="is listed on" style="edgeStyle=orthogonalEdgeStyle;rounded=0;orthogonalLoop=1;jettySize=auto;html=1;startArrow=ERoneToMany;startFill=0;endArrow=ERmandOne;endFill=0;endSize=15;startSize=15;dashed=1;exitX=0.492;exitY=1.013;exitDx=0;exitDy=0;exitPerimeter=0;" parent="1" source="0LHcCGDAPpz1XPyRw5mx-182" edge="1">
          <mxGeometry x="-0.0476" y="19" relative="1" as="geometry">
            <mxPoint x="910" y="1430" as="sourcePoint" />
            <mxPoint x="930" y="1560" as="targetPoint" />
            <Array as="points">
              <mxPoint x="928" y="1550" />
              <mxPoint x="930" y="1550" />
            </Array>
            <mxPoint as="offset" />
          </mxGeometry>
        </mxCell>
        <mxCell id="0LHcCGDAPpz1XPyRw5mx-117" style="edgeStyle=orthogonalEdgeStyle;rounded=0;orthogonalLoop=1;jettySize=auto;html=1;exitX=1;exitY=0.5;exitDx=0;exitDy=0;entryX=0.011;entryY=0.074;entryDx=0;entryDy=0;entryPerimeter=0;startArrow=ERmandOne;startFill=0;endArrow=ERzeroToMany;endFill=0;endSize=15;startSize=15;dashed=1;" parent="1" edge="1">
          <mxGeometry relative="1" as="geometry">
            <mxPoint x="650" y="1308" as="sourcePoint" />
            <mxPoint x="797" y="1308" as="targetPoint" />
          </mxGeometry>
        </mxCell>
        <mxCell id="0LHcCGDAPpz1XPyRw5mx-186" value="appears in" style="edgeLabel;html=1;align=center;verticalAlign=middle;resizable=0;points=[];" parent="0LHcCGDAPpz1XPyRw5mx-117" vertex="1" connectable="0">
          <mxGeometry x="-0.2157" y="-1" relative="1" as="geometry">
            <mxPoint x="13" y="-22" as="offset" />
          </mxGeometry>
        </mxCell>
      </root>
    </mxGraphModel>
  </diagram>
</mxfile>
